<?xml version="1.0" standalone="no"?>
<!DOCTYPE svg PUBLIC "-//W3C//DTD SVG 20010904//EN"
 "http://www.w3.org/TR/2001/REC-SVG-20010904/DTD/svg10.dtd">
<svg version="1.0" xmlns="http://www.w3.org/2000/svg"
 width="16.000000pt" height="16.000000pt" viewBox="0 0 16.000000 16.000000"
 preserveAspectRatio="xMidYMid meet">
<metadata>
Created by potrace 1.11, written by Peter Selinger 2001-2013
</metadata>
<g transform="translate(0.000000,16.000000) scale(0.001600,-0.001600)"
fill="#000000" stroke="none">
<path d="M502 4945 l3 -4540 4539 0 4539 0 -1 4535 c0 2494 -1 4537 -1 4540
-1 3 -2044 5 -4541 5 l-4540 0 2 -4540z m3341 2345 c34 0 47 -4 47 -15 0 -8 7
-29 15 -47 7 -18 37 -95 65 -171 28 -76 55 -148 60 -160 5 -12 93 -247 195
-522 103 -275 190 -509 195 -520 21 -45 312 -831 363 -980 31 -88 88 -260 129
-382 40 -123 75 -223 78 -223 3 0 25 60 48 133 43 129 83 244 144 417 38 108
197 537 242 655 19 50 50 131 69 180 18 50 97 254 174 455 77 201 211 550 298
775 l157 410 555 -2 c305 -1 556 -3 558 -5 4 -4 12 -62 19 -143 16 -160 25
-259 31 -315 3 -25 7 -74 10 -110 3 -35 7 -76 10 -90 2 -14 7 -61 10 -105 3
-44 8 -93 10 -110 2 -16 7 -61 10 -100 4 -38 8 -81 10 -95 3 -22 12 -119 20
-215 1 -16 5 -57 9 -90 4 -33 9 -87 12 -120 3 -33 7 -74 9 -91 2 -17 7 -66 10
-110 4 -43 9 -86 10 -95 2 -8 6 -53 10 -100 4 -46 9 -91 10 -100 2 -9 6 -56
10 -105 4 -49 9 -97 11 -107 2 -10 6 -48 9 -85 5 -58 10 -113 20 -212 1 -14 6
-63 10 -110 4 -47 9 -94 11 -104 2 -11 6 -52 9 -90 3 -39 7 -87 9 -106 3 -19
7 -64 10 -100 4 -36 9 -85 11 -110 3 -25 8 -70 10 -100 2 -30 7 -71 9 -90 3
-19 8 -71 11 -115 4 -44 8 -91 10 -105 3 -23 11 -101 21 -209 2 -24 6 -66 9
-93 3 -26 7 -72 10 -100 14 -148 17 -175 20 -198 2 -14 6 -61 10 -105 3 -44 8
-91 10 -105 2 -14 7 -61 10 -105 3 -43 8 -93 10 -110 15 -101 14 -135 -3 -136
-83 -4 -1014 -1 -1018 4 -4 3 -8 28 -10 54 -4 55 -13 151 -19 203 -2 19 -7 71
-10 115 -3 44 -8 94 -10 110 -2 17 -7 64 -10 105 -3 41 -8 93 -10 115 -2 22
-7 72 -10 110 -3 39 -8 88 -10 110 -2 22 -7 72 -11 110 -3 39 -8 84 -9 100 -2
17 -6 70 -10 119 -4 49 -8 98 -10 109 -3 10 -7 58 -10 106 -3 47 -8 100 -10
116 -2 17 -7 62 -10 100 -3 39 -8 90 -10 115 -5 51 -12 141 -20 250 -3 41 -7
102 -10 135 -3 33 -7 96 -10 140 -3 44 -8 98 -10 120 -2 22 -6 85 -10 140 -3
55 -8 114 -10 132 -3 17 -7 73 -11 125 -3 51 -7 94 -8 96 -4 3 -20 -42 -189
-503 -69 -187 -202 -547 -297 -800 -94 -253 -218 -588 -276 -745 -58 -157
-109 -294 -114 -305 -5 -11 -48 -126 -95 -255 -48 -129 -91 -242 -96 -251 -7
-15 -46 -16 -360 -16 l-351 0 -15 36 c-9 20 -35 90 -58 156 -24 66 -57 158
-75 205 -17 47 -36 101 -42 120 -5 19 -15 41 -22 49 -6 8 -10 16 -8 18 2 2 -6
29 -18 61 -12 31 -23 62 -25 67 -1 6 -5 17 -8 25 -4 8 -14 35 -23 60 -9 25
-35 99 -59 165 -87 246 -201 555 -216 590 -14 33 -290 841 -404 1180 -21 64
-23 67 -25 35 -2 -19 -4 -44 -5 -55 -1 -11 -6 -83 -10 -160 -3 -77 -8 -156
-10 -175 -2 -19 -6 -84 -10 -145 -3 -60 -8 -126 -10 -145 -2 -19 -6 -84 -10
-145 -11 -159 -12 -171 -19 -275 -4 -52 -9 -111 -11 -130 -2 -19 -6 -78 -10
-130 -3 -52 -8 -115 -10 -140 -2 -25 -6 -81 -10 -125 -3 -44 -8 -105 -10 -135
-3 -30 -7 -91 -10 -135 -3 -44 -7 -98 -9 -120 -2 -22 -7 -80 -10 -130 -4 -49
-8 -110 -11 -135 -3 -39 -7 -85 -20 -265 -1 -16 -6 -79 -10 -139 -9 -129 -9
-133 -18 -142 -9 -9 -1010 -9 -1025 0 -6 4 -9 12 -7 19 2 7 6 50 10 97 3 47 7
103 9 125 2 22 7 85 11 140 3 55 8 111 10 125 2 14 7 70 10 125 4 55 8 114 11
131 2 16 6 64 8 105 7 92 15 200 21 259 3 25 7 79 10 120 9 119 15 191 20 250
3 30 7 89 10 130 5 86 14 187 20 245 3 22 7 81 10 130 3 50 8 108 10 130 2 22
7 78 10 125 3 47 7 103 10 125 3 22 7 76 10 120 3 44 8 100 10 125 3 25 7 80
10 124 3 43 8 102 10 130 2 28 7 85 10 126 3 41 8 95 10 120 3 25 7 79 10 120
3 41 7 100 10 130 2 30 7 89 10 130 3 41 8 95 10 120 3 25 7 79 10 120 3 41 7
100 10 130 2 30 7 84 10 120 3 36 7 90 10 120 2 30 7 91 10 135 3 44 7 100 10
125 2 25 7 79 10 120 3 41 8 98 10 125 2 28 4 55 5 60 0 8 505 11 1083 5z"/>
</g>
</svg>
